<svg xmlns="http://www.w3.org/2000/svg" viewBox="0 0 512 512" width="512" height="512">
  <defs>
    <!-- Background gradient -->
    <linearGradient id="bgGrad" x1="0%" y1="0%" x2="100%" y2="100%">
      <stop offset="0%" stop-color="#0c0e14"/>
      <stop offset="100%" stop-color="#0f1220"/>
    </linearGradient>

    <!-- Hub gradient -->
    <radialGradient id="hubGrad" cx="40%" cy="35%" r="60%">
      <stop offset="0%" stop-color="#8aa3ff"/>
      <stop offset="100%" stop-color="#6c8cff"/>
    </radialGradient>

    <!-- Hub aura -->
    <radialGradient id="hubAura" cx="50%" cy="50%" r="50%">
      <stop offset="0%" stop-color="#6c8cff" stop-opacity="0.25"/>
      <stop offset="100%" stop-color="#6c8cff" stop-opacity="0"/>
    </radialGradient>

    <!-- Outer ring gradient -->
    <linearGradient id="ringGrad" x1="0%" y1="0%" x2="100%" y2="100%">
      <stop offset="0%" stop-color="#6c8cff" stop-opacity="0.4"/>
      <stop offset="100%" stop-color="#a78bfa" stop-opacity="0.1"/>
    </linearGradient>

    <!-- Node glow -->
    <filter id="nodeGlow" x="-80%" y="-80%" width="260%" height="260%">
      <feGaussianBlur in="SourceGraphic" stdDeviation="5" result="blur"/>
      <feMerge>
        <feMergeNode in="blur"/>
        <feMergeNode in="SourceGraphic"/>
      </feMerge>
    </filter>

    <!-- Hub glow -->
    <filter id="hubGlow" x="-120%" y="-120%" width="340%" height="340%">
      <feGaussianBlur in="SourceGraphic" stdDeviation="14" result="blur"/>
      <feMerge>
        <feMergeNode in="blur"/>
        <feMergeNode in="SourceGraphic"/>
      </feMerge>
    </filter>

    <!-- Outer ring glow -->
    <filter id="ringGlow" x="-10%" y="-10%" width="120%" height="120%">
      <feGaussianBlur in="SourceGraphic" stdDeviation="2" result="blur"/>
      <feMerge>
        <feMergeNode in="blur"/>
        <feMergeNode in="SourceGraphic"/>
      </feMerge>
    </filter>

    <!-- Clip to rounded square -->
    <clipPath id="roundedSquare">
      <rect width="512" height="512" rx="96" ry="96"/>
    </clipPath>
  </defs>

  <!-- Rounded square background -->
  <rect width="512" height="512" rx="96" ry="96" fill="url(#bgGrad)"/>

  <!-- Subtle dot grid (clipped) -->
  <g clip-path="url(#roundedSquare)">
    <!-- Dot pattern via small circles -->
    <g fill="#252a3a" opacity="0.5">
      <!-- Row pattern: 30px spacing -->
      <circle cx="30" cy="30" r="1.2"/><circle cx="60" cy="30" r="1.2"/><circle cx="90" cy="30" r="1.2"/>
      <circle cx="120" cy="30" r="1.2"/><circle cx="150" cy="30" r="1.2"/><circle cx="180" cy="30" r="1.2"/>
      <circle cx="210" cy="30" r="1.2"/><circle cx="240" cy="30" r="1.2"/><circle cx="270" cy="30" r="1.2"/>
      <circle cx="300" cy="30" r="1.2"/><circle cx="330" cy="30" r="1.2"/><circle cx="360" cy="30" r="1.2"/>
      <circle cx="390" cy="30" r="1.2"/><circle cx="420" cy="30" r="1.2"/><circle cx="450" cy="30" r="1.2"/>
      <circle cx="480" cy="30" r="1.2"/>
      <circle cx="30" cy="60" r="1.2"/><circle cx="60" cy="60" r="1.2"/><circle cx="90" cy="60" r="1.2"/>
      <circle cx="120" cy="60" r="1.2"/><circle cx="150" cy="60" r="1.2"/><circle cx="180" cy="60" r="1.2"/>
      <circle cx="210" cy="60" r="1.2"/><circle cx="240" cy="60" r="1.2"/><circle cx="270" cy="60" r="1.2"/>
      <circle cx="300" cy="60" r="1.2"/><circle cx="330" cy="60" r="1.2"/><circle cx="360" cy="60" r="1.2"/>
      <circle cx="390" cy="60" r="1.2"/><circle cx="420" cy="60" r="1.2"/><circle cx="450" cy="60" r="1.2"/>
      <circle cx="480" cy="60" r="1.2"/>
      <circle cx="30" cy="90" r="1.2"/><circle cx="60" cy="90" r="1.2"/><circle cx="90" cy="90" r="1.2"/>
      <circle cx="120" cy="90" r="1.2"/><circle cx="150" cy="90" r="1.2"/><circle cx="180" cy="90" r="1.2"/>
      <circle cx="210" cy="90" r="1.2"/><circle cx="240" cy="90" r="1.2"/><circle cx="270" cy="90" r="1.2"/>
      <circle cx="300" cy="90" r="1.2"/><circle cx="330" cy="90" r="1.2"/><circle cx="360" cy="90" r="1.2"/>
      <circle cx="390" cy="90" r="1.2"/><circle cx="420" cy="90" r="1.2"/><circle cx="450" cy="90" r="1.2"/>
      <circle cx="480" cy="90" r="1.2"/>
      <circle cx="30" cy="120" r="1.2"/><circle cx="60" cy="120" r="1.2"/><circle cx="90" cy="120" r="1.2"/>
      <circle cx="120" cy="120" r="1.2"/><circle cx="150" cy="120" r="1.2"/><circle cx="180" cy="120" r="1.2"/>
      <circle cx="210" cy="120" r="1.2"/><circle cx="240" cy="120" r="1.2"/><circle cx="270" cy="120" r="1.2"/>
      <circle cx="300" cy="120" r="1.2"/><circle cx="330" cy="120" r="1.2"/><circle cx="360" cy="120" r="1.2"/>
      <circle cx="390" cy="120" r="1.2"/><circle cx="420" cy="120" r="1.2"/><circle cx="450" cy="120" r="1.2"/>
      <circle cx="480" cy="120" r="1.2"/>
      <circle cx="30" cy="150" r="1.2"/><circle cx="60" cy="150" r="1.2"/><circle cx="90" cy="150" r="1.2"/>
      <circle cx="120" cy="150" r="1.2"/><circle cx="150" cy="150" r="1.2"/><circle cx="180" cy="150" r="1.2"/>
      <circle cx="210" cy="150" r="1.2"/><circle cx="240" cy="150" r="1.2"/><circle cx="270" cy="150" r="1.2"/>
      <circle cx="300" cy="150" r="1.2"/><circle cx="330" cy="150" r="1.2"/><circle cx="360" cy="150" r="1.2"/>
      <circle cx="390" cy="150" r="1.2"/><circle cx="420" cy="150" r="1.2"/><circle cx="450" cy="150" r="1.2"/>
      <circle cx="480" cy="150" r="1.2"/>
      <circle cx="30" cy="180" r="1.2"/><circle cx="60" cy="180" r="1.2"/><circle cx="90" cy="180" r="1.2"/>
      <circle cx="120" cy="180" r="1.2"/><circle cx="150" cy="180" r="1.2"/><circle cx="180" cy="180" r="1.2"/>
      <circle cx="210" cy="180" r="1.2"/><circle cx="240" cy="180" r="1.2"/><circle cx="270" cy="180" r="1.2"/>
      <circle cx="300" cy="180" r="1.2"/><circle cx="330" cy="180" r="1.2"/><circle cx="360" cy="180" r="1.2"/>
      <circle cx="390" cy="180" r="1.2"/><circle cx="420" cy="180" r="1.2"/><circle cx="450" cy="180" r="1.2"/>
      <circle cx="480" cy="180" r="1.2"/>
      <circle cx="30" cy="210" r="1.2"/><circle cx="60" cy="210" r="1.2"/><circle cx="90" cy="210" r="1.2"/>
      <circle cx="120" cy="210" r="1.2"/><circle cx="150" cy="210" r="1.2"/><circle cx="180" cy="210" r="1.2"/>
      <circle cx="210" cy="210" r="1.2"/><circle cx="240" cy="210" r="1.2"/><circle cx="270" cy="210" r="1.2"/>
      <circle cx="300" cy="210" r="1.2"/><circle cx="330" cy="210" r="1.2"/><circle cx="360" cy="210" r="1.2"/>
      <circle cx="390" cy="210" r="1.2"/><circle cx="420" cy="210" r="1.2"/><circle cx="450" cy="210" r="1.2"/>
      <circle cx="480" cy="210" r="1.2"/>
      <circle cx="30" cy="240" r="1.2"/><circle cx="60" cy="240" r="1.2"/><circle cx="90" cy="240" r="1.2"/>
      <circle cx="120" cy="240" r="1.2"/><circle cx="150" cy="240" r="1.2"/><circle cx="180" cy="240" r="1.2"/>
      <circle cx="210" cy="240" r="1.2"/><circle cx="240" cy="240" r="1.2"/><circle cx="270" cy="240" r="1.2"/>
      <circle cx="300" cy="240" r="1.2"/><circle cx="330" cy="240" r="1.2"/><circle cx="360" cy="240" r="1.2"/>
      <circle cx="390" cy="240" r="1.2"/><circle cx="420" cy="240" r="1.2"/><circle cx="450" cy="240" r="1.2"/>
      <circle cx="480" cy="240" r="1.2"/>
      <circle cx="30" cy="270" r="1.2"/><circle cx="60" cy="270" r="1.2"/><circle cx="90" cy="270" r="1.2"/>
      <circle cx="120" cy="270" r="1.2"/><circle cx="150" cy="270" r="1.2"/><circle cx="180" cy="270" r="1.2"/>
      <circle cx="210" cy="270" r="1.2"/><circle cx="240" cy="270" r="1.2"/><circle cx="270" cy="270" r="1.2"/>
      <circle cx="300" cy="270" r="1.2"/><circle cx="330" cy="270" r="1.2"/><circle cx="360" cy="270" r="1.2"/>
      <circle cx="390" cy="270" r="1.2"/><circle cx="420" cy="270" r="1.2"/><circle cx="450" cy="270" r="1.2"/>
      <circle cx="480" cy="270" r="1.2"/>
      <circle cx="30" cy="300" r="1.2"/><circle cx="60" cy="300" r="1.2"/><circle cx="90" cy="300" r="1.2"/>
      <circle cx="120" cy="300" r="1.2"/><circle cx="150" cy="300" r="1.2"/><circle cx="180" cy="300" r="1.2"/>
      <circle cx="210" cy="300" r="1.2"/><circle cx="240" cy="300" r="1.2"/><circle cx="270" cy="300" r="1.2"/>
      <circle cx="300" cy="300" r="1.2"/><circle cx="330" cy="300" r="1.2"/><circle cx="360" cy="300" r="1.2"/>
      <circle cx="390" cy="300" r="1.2"/><circle cx="420" cy="300" r="1.2"/><circle cx="450" cy="300" r="1.2"/>
      <circle cx="480" cy="300" r="1.2"/>
      <circle cx="30" cy="330" r="1.2"/><circle cx="60" cy="330" r="1.2"/><circle cx="90" cy="330" r="1.2"/>
      <circle cx="120" cy="330" r="1.2"/><circle cx="150" cy="330" r="1.2"/><circle cx="180" cy="330" r="1.2"/>
      <circle cx="210" cy="330" r="1.2"/><circle cx="240" cy="330" r="1.2"/><circle cx="270" cy="330" r="1.2"/>
      <circle cx="300" cy="330" r="1.2"/><circle cx="330" cy="330" r="1.2"/><circle cx="360" cy="330" r="1.2"/>
      <circle cx="390" cy="330" r="1.2"/><circle cx="420" cy="330" r="1.2"/><circle cx="450" cy="330" r="1.2"/>
      <circle cx="480" cy="330" r="1.2"/>
      <circle cx="30" cy="360" r="1.2"/><circle cx="60" cy="360" r="1.2"/><circle cx="90" cy="360" r="1.2"/>
      <circle cx="120" cy="360" r="1.2"/><circle cx="150" cy="360" r="1.2"/><circle cx="180" cy="360" r="1.2"/>
      <circle cx="210" cy="360" r="1.2"/><circle cx="240" cy="360" r="1.2"/><circle cx="270" cy="360" r="1.2"/>
      <circle cx="300" cy="360" r="1.2"/><circle cx="330" cy="360" r="1.2"/><circle cx="360" cy="360" r="1.2"/>
      <circle cx="390" cy="360" r="1.2"/><circle cx="420" cy="360" r="1.2"/><circle cx="450" cy="360" r="1.2"/>
      <circle cx="480" cy="360" r="1.2"/>
      <circle cx="30" cy="390" r="1.2"/><circle cx="60" cy="390" r="1.2"/><circle cx="90" cy="390" r="1.2"/>
      <circle cx="120" cy="390" r="1.2"/><circle cx="150" cy="390" r="1.2"/><circle cx="180" cy="390" r="1.2"/>
      <circle cx="210" cy="390" r="1.2"/><circle cx="240" cy="390" r="1.2"/><circle cx="270" cy="390" r="1.2"/>
      <circle cx="300" cy="390" r="1.2"/><circle cx="330" cy="390" r="1.2"/><circle cx="360" cy="390" r="1.2"/>
      <circle cx="390" cy="390" r="1.2"/><circle cx="420" cy="390" r="1.2"/><circle cx="450" cy="390" r="1.2"/>
      <circle cx="480" cy="390" r="1.2"/>
      <circle cx="30" cy="420" r="1.2"/><circle cx="60" cy="420" r="1.2"/><circle cx="90" cy="420" r="1.2"/>
      <circle cx="120" cy="420" r="1.2"/><circle cx="150" cy="420" r="1.2"/><circle cx="180" cy="420" r="1.2"/>
      <circle cx="210" cy="420" r="1.2"/><circle cx="240" cy="420" r="1.2"/><circle cx="270" cy="420" r="1.2"/>
      <circle cx="300" cy="420" r="1.2"/><circle cx="330" cy="420" r="1.2"/><circle cx="360" cy="420" r="1.2"/>
      <circle cx="390" cy="420" r="1.2"/><circle cx="420" cy="420" r="1.2"/><circle cx="450" cy="420" r="1.2"/>
      <circle cx="480" cy="420" r="1.2"/>
      <circle cx="30" cy="450" r="1.2"/><circle cx="60" cy="450" r="1.2"/><circle cx="90" cy="450" r="1.2"/>
      <circle cx="120" cy="450" r="1.2"/><circle cx="150" cy="450" r="1.2"/><circle cx="180" cy="450" r="1.2"/>
      <circle cx="210" cy="450" r="1.2"/><circle cx="240" cy="450" r="1.2"/><circle cx="270" cy="450" r="1.2"/>
      <circle cx="300" cy="450" r="1.2"/><circle cx="330" cy="450" r="1.2"/><circle cx="360" cy="450" r="1.2"/>
      <circle cx="390" cy="450" r="1.2"/><circle cx="420" cy="450" r="1.2"/><circle cx="450" cy="450" r="1.2"/>
      <circle cx="480" cy="450" r="1.2"/>
      <circle cx="30" cy="480" r="1.2"/><circle cx="60" cy="480" r="1.2"/><circle cx="90" cy="480" r="1.2"/>
      <circle cx="120" cy="480" r="1.2"/><circle cx="150" cy="480" r="1.2"/><circle cx="180" cy="480" r="1.2"/>
      <circle cx="210" cy="480" r="1.2"/><circle cx="240" cy="480" r="1.2"/><circle cx="270" cy="480" r="1.2"/>
      <circle cx="300" cy="480" r="1.2"/><circle cx="330" cy="480" r="1.2"/><circle cx="360" cy="480" r="1.2"/>
      <circle cx="390" cy="480" r="1.2"/><circle cx="420" cy="480" r="1.2"/><circle cx="450" cy="480" r="1.2"/>
      <circle cx="480" cy="480" r="1.2"/>
    </g>
  </g>

  <!--
    Graph layout (centered at 256,256):
    Hub:  (256, 256)  r=48  #6c8cff
    N1:   (160, 160)  r=26  #60a5fa
    N2:   (160, 352)  r=24  #34d399
    N3:   (352, 155)  r=22  #a78bfa
    N4:   (352, 357)  r=26  #f59e0b
    N5:   (100, 256)  r=18  #fb7185
    N6:   (256, 96)   r=18  #6c8cff
    N7:   (256, 416)  r=18  #60a5fa
    N8:   (412, 180)  r=16  #a78bfa
    N9:   (412, 332)  r=16  #34d399
  -->

  <!-- Edges -->
  <g stroke="#252a3a" stroke-width="1.8" opacity="0.75">
    <!-- Hub to Ring 1 -->
    <line x1="256" y1="256" x2="160" y2="160"/>
    <line x1="256" y1="256" x2="160" y2="352"/>
    <line x1="256" y1="256" x2="352" y2="155"/>
    <line x1="256" y1="256" x2="352" y2="357"/>
    <!-- Hub to Ring 2 -->
    <line x1="256" y1="256" x2="100" y2="256"/>
    <line x1="256" y1="256" x2="256" y2="96"/>
    <line x1="256" y1="256" x2="256" y2="416"/>
    <!-- Ring 1 to Ring 2 -->
    <line x1="160" y1="160" x2="100" y2="256"/>
    <line x1="160" y1="160" x2="256" y2="96"/>
    <line x1="160" y1="352" x2="100" y2="256"/>
    <line x1="160" y1="352" x2="256" y2="416"/>
    <line x1="352" y1="155" x2="256" y2="96"/>
    <line x1="352" y1="155" x2="412" y2="180"/>
    <line x1="352" y1="357" x2="256" y2="416"/>
    <line x1="352" y1="357" x2="412" y2="332"/>
    <!-- Ring 1 cross -->
    <line x1="160" y1="160" x2="352" y2="155"/>
    <line x1="160" y1="352" x2="352" y2="357"/>
    <!-- Ring 2 outer -->
    <line x1="412" y1="180" x2="412" y2="332"/>
  </g>

  <!-- Hub soft aura -->
  <circle cx="256" cy="256" r="110" fill="url(#hubAura)"/>

  <!-- Hub outer ring decoration -->
  <circle cx="256" cy="256" r="60" fill="none" stroke="#6c8cff" stroke-width="1" opacity="0.2"/>

  <!-- Ring 1 nodes -->
  <circle cx="160" cy="160" r="26" fill="#60a5fa" filter="url(#nodeGlow)"/>
  <circle cx="160" cy="160" r="26" fill="#60a5fa"/>

  <circle cx="160" cy="352" r="24" fill="#34d399" filter="url(#nodeGlow)"/>
  <circle cx="160" cy="352" r="24" fill="#34d399"/>

  <circle cx="352" cy="155" r="22" fill="#a78bfa" filter="url(#nodeGlow)"/>
  <circle cx="352" cy="155" r="22" fill="#a78bfa"/>

  <circle cx="352" cy="357" r="26" fill="#f59e0b" filter="url(#nodeGlow)"/>
  <circle cx="352" cy="357" r="26" fill="#f59e0b"/>

  <!-- Ring 2 nodes -->
  <circle cx="100" cy="256" r="18" fill="#fb7185" filter="url(#nodeGlow)"/>
  <circle cx="100" cy="256" r="18" fill="#fb7185"/>

  <circle cx="256" cy="96" r="18" fill="#6c8cff" filter="url(#nodeGlow)"/>
  <circle cx="256" cy="96" r="18" fill="#6c8cff"/>

  <circle cx="256" cy="416" r="18" fill="#60a5fa" filter="url(#nodeGlow)"/>
  <circle cx="256" cy="416" r="18" fill="#60a5fa"/>

  <circle cx="412" cy="180" r="16" fill="#a78bfa" filter="url(#nodeGlow)"/>
  <circle cx="412" cy="180" r="16" fill="#a78bfa"/>

  <circle cx="412" cy="332" r="16" fill="#34d399" filter="url(#nodeGlow)"/>
  <circle cx="412" cy="332" r="16" fill="#34d399"/>

  <!-- Hub (drawn on top) -->
  <circle cx="256" cy="256" r="48" fill="url(#hubGrad)" filter="url(#hubGlow)"/>
  <circle cx="256" cy="256" r="48" fill="url(#hubGrad)"/>
  <!-- Hub inner highlight -->
  <circle cx="244" cy="244" r="16" fill="white" opacity="0.12"/>

  <!-- N lettermark in hub -->
  <text x="256" y="270"
        text-anchor="middle"
        font-family="ui-sans-serif, system-ui, -apple-system, sans-serif"
        font-size="42" font-weight="800"
        fill="white" opacity="0.95">N</text>

</svg>
